<svg width="832" height="832" viewBox="0 0 832 832" fill="none" xmlns="http://www.w3.org/2000/svg">
<path d="M483.681 481.319C481.085 541.089 453.809 589.925 421.808 589.925C389.82 589.925 362.532 541.089 359.947 481.319H483.681ZM580.265 546.385C591.645 546.385 601.145 554.523 603.273 565.297C593.303 571.557 585.931 581.401 582.813 593.056C581.972 593.141 581.144 593.315 580.265 593.315C567.327 593.315 556.812 582.776 556.812 569.848C556.812 556.909 567.327 546.385 580.265 546.385V546.385ZM526.556 640.445C526.556 624.723 539.333 611.931 555.056 611.931C570.777 611.931 583.568 624.723 583.568 640.445C583.568 644.327 582.777 648.013 581.367 651.403C580.476 653.531 579.277 655.473 577.915 657.303C572.719 664.331 564.444 668.945 555.056 668.945C539.333 668.945 526.556 656.153 526.556 640.445V640.445ZM557.579 734.504C544.64 734.504 534.113 723.964 534.113 711.037C534.113 710.16 534.275 709.319 534.373 708.466C534.744 705.088 535.808 701.947 537.465 699.149C539.853 695.119 543.391 691.852 547.659 689.849C550.689 688.427 554.017 687.572 557.579 687.572C561.141 687.572 564.469 688.427 567.5 689.849C572.596 692.248 576.716 696.404 579.004 701.574C580.291 704.469 581.045 707.66 581.045 711.037C581.045 723.964 570.517 734.504 557.579 734.504V734.504ZM615.569 699.2C602.631 699.2 592.103 688.673 592.103 675.735C592.103 672.716 592.735 669.859 593.773 667.212C594.973 665.48 595.927 663.575 596.889 661.695C601.171 656.005 607.924 652.269 615.569 652.269C619.812 652.269 623.745 653.493 627.184 655.473C634.223 659.529 639.021 667.039 639.021 675.735C639.021 676.441 638.873 677.095 638.824 677.776C637.76 689.749 627.803 699.2 615.569 699.2V699.2ZM691.977 648.003C691.977 660.928 681.449 671.467 668.511 671.467C664.269 671.467 660.335 670.243 656.897 668.251C655.524 660.631 652.036 653.815 647.136 648.212C657.651 643.561 666.063 635.185 670.885 624.783C682.688 625.984 691.977 635.867 691.977 648.003V648.003ZM656.673 605.14C656.673 606.093 656.488 606.984 656.389 607.911C655.981 612.104 654.707 616.013 652.667 619.489C649.883 624.213 645.801 628.049 640.877 630.523C637.316 632.317 633.369 633.405 629.151 633.555C628.817 633.565 628.507 633.652 628.173 633.652C613.045 633.652 600.749 621.779 599.835 606.872C599.809 606.291 599.661 605.733 599.661 605.14C599.661 601.332 600.453 597.693 601.813 594.367C603.607 590.001 606.513 586.252 610.101 583.283C613.404 580.549 617.277 578.508 621.581 577.481C623.708 576.973 625.885 576.64 628.173 576.64C634.099 576.64 639.591 578.459 644.168 581.563C645.912 582.751 647.471 584.173 648.919 585.721C649.684 586.536 650.389 587.403 651.057 588.316C653.321 591.373 654.979 594.873 655.869 598.696C656.365 600.775 656.673 602.913 656.673 605.14ZM738.649 552.493C736.953 547.645 731.647 545.123 726.799 546.78C723.112 548.065 719.475 549.005 715.889 549.663C677.987 556.589 645.936 530.253 629.645 513.221C622.472 505.712 618.265 499.972 618.129 499.776C615.173 495.569 609.359 494.579 605.153 497.547C600.96 500.516 599.957 506.305 602.915 510.512C604.287 512.453 624.401 540.387 655.932 557.12C654.953 559.421 653.804 561.993 652.431 564.963C645.331 560.647 637.08 558.012 628.173 558.012C625.613 558.012 623.139 558.383 620.691 558.779C615.791 540.967 599.612 527.755 580.265 527.755C557.06 527.755 538.184 546.643 538.184 569.848C538.184 578.953 541.165 587.327 546.1 594.22C524.391 598.423 507.927 617.523 507.927 640.445C507.927 656.993 516.549 671.516 529.5 679.928C526.308 682.797 523.612 686.137 521.435 689.849H431.123V607.615C471.819 600.019 502.499 543.229 502.499 472.004C502.499 466.869 498.328 462.689 493.181 462.689H350.435C345.289 462.689 341.12 466.869 341.12 472.004C341.12 543.229 371.809 600.019 412.507 607.615V689.849H306.992V369.595C306.992 328.688 286.087 308.809 269.289 292.827C256.833 280.977 247 271.615 247 256.263V90.4827C247 85.3374 242.817 81.1681 237.684 81.1681H184.357C179.212 81.1681 175.043 85.3374 175.043 90.4827V256.263C175.043 271.615 165.209 280.977 152.753 292.827C135.955 308.809 115.049 328.688 115.049 369.595V689.849H55.614C50.4797 689.849 46.312 694.017 46.312 699.149C46.312 704.296 50.4797 708.466 55.614 708.466H124.365C129.498 708.466 133.667 704.296 133.667 699.149V369.595C133.667 336.679 149.896 321.241 165.581 306.311C179.385 293.175 193.66 279.592 193.66 256.263V99.7854H228.369V256.263C228.369 279.592 242.645 293.175 256.449 306.311C272.147 321.241 288.363 336.679 288.363 369.595V699.149C288.363 704.296 292.531 708.466 297.677 708.466H421.808H515.757C515.696 709.333 515.499 710.16 515.499 711.037C515.499 734.232 534.373 753.109 557.579 753.109C579.584 753.109 597.499 736.074 599.316 714.538C604.312 716.642 609.805 717.817 615.569 717.817C634.531 717.817 650.415 705.137 655.659 687.856C659.729 689.18 664.009 690.071 668.511 690.071C691.717 690.071 710.593 671.195 710.593 648.003C710.593 627.072 695.193 609.803 675.155 606.587C675.167 606.104 675.303 605.635 675.303 605.14C675.303 595.132 672.111 585.893 666.78 578.248C669.489 572.633 671.641 567.783 673.027 564.556C682.291 567.66 692.237 569.589 702.788 569.589C712.4 569.589 722.481 568.005 732.933 564.345C737.795 562.651 740.355 557.343 738.649 552.493Z" fill="#FF6749"/>
</svg>
